<?xml version="1.0" encoding="utf-8"?>
<!-- Generator: Adobe Illustrator 24.1.2, SVG Export Plug-In . SVG Version: 6.00 Build 0)  -->
<svg version="1.1" xmlns="http://www.w3.org/2000/svg" xmlns:xlink="http://www.w3.org/1999/xlink" x="0px" y="0px"
	 viewBox="0 0 250 600" style="enable-background:new 0 0 250 600;" xml:space="preserve">
<style type="text/css">
	.st0{font-family:'sans-serif';}
	.st1{font-size:12px;}
	.st2{opacity:0.5;fill-rule:evenodd;clip-rule:evenodd;fill:#FAE2B2;}
	.st3{fill-rule:evenodd;clip-rule:evenodd;fill:none;}
	.st4{fill-rule:evenodd;clip-rule:evenodd;fill:#687D6C;}
	.st5{fill:none;}
	.st6{font-size:13px;}
	.st7{fill-rule:evenodd;clip-rule:evenodd;fill:#B3CC9F;}
	.st8{fill-rule:evenodd;clip-rule:evenodd;fill:#8B9E4A;}
	.st9{fill-rule:evenodd;clip-rule:evenodd;fill:#D6C180;}
	.st10{fill-rule:evenodd;clip-rule:evenodd;fill:#BA6128;}
	.st11{font-size:14px;}
	.st12{fill:none;stroke:#686969;stroke-width:1;stroke-linecap:round;stroke-miterlimit:10;}
	
		.st13{opacity:0.5;fill:none;stroke:#343434;stroke-width:1.4118;stroke-linecap:round;stroke-linejoin:bevel;stroke-miterlimit:10;}
	.st14{fill:none;stroke:#00B1AE;stroke-width:0.25;stroke-linecap:round;stroke-linejoin:round;stroke-miterlimit:10;}
	.st15{fill:none;stroke:#343156;stroke-width:1;stroke-linecap:round;stroke-linejoin:bevel;stroke-miterlimit:10;}
	.st16{fill:none;stroke:#E7BD20;stroke-width:0.5;stroke-linecap:round;stroke-linejoin:round;stroke-miterlimit:10;}
	.st17{fill:none;stroke:#1E6131;stroke-width:1;stroke-linecap:round;stroke-linejoin:bevel;stroke-miterlimit:10;}
	.st18{fill:none;stroke:#6D2879;stroke-width:1.5;stroke-linecap:round;stroke-linejoin:bevel;stroke-miterlimit:10;}
	.st19{fill:none;stroke:#E45A25;stroke-width:2;stroke-linecap:round;stroke-linejoin:bevel;stroke-miterlimit:10;}
	.st20{fill:none;stroke:#B3CC9F;stroke-width:1;stroke-linejoin:bevel;stroke-miterlimit:10;stroke-dasharray:0,6,18,12,18,6;}
	.st21{fill:#B3CC9F;}
	.st22{font-family:'ESRIDefaultMarker';}
	.st23{font-size:5.9375px;}
	.st24{fill:none;stroke:#844121;stroke-width:1;stroke-linejoin:bevel;stroke-miterlimit:10;}
	.st25{fill:none;stroke:#24326E;stroke-width:1.2;stroke-linejoin:bevel;stroke-miterlimit:10;}
	.st26{clip-path:url(#SVGID_4_);fill-rule:evenodd;clip-rule:evenodd;fill:#DF6626;}
	.st27{clip-path:url(#SVGID_4_);fill:none;stroke:#DF6626;stroke-width:0.128;}
	.st28{clip-path:url(#SVGID_4_);fill:none;stroke:#FFFFFF;stroke-width:0.704;}
	.st29{fill-rule:evenodd;clip-rule:evenodd;fill:#E5BC21;}
	.st30{fill:none;stroke:#010101;stroke-width:1.1111;stroke-linecap:round;stroke-linejoin:round;stroke-miterlimit:10;}
	.st31{clip-path:url(#SVGID_5_);fill-rule:evenodd;clip-rule:evenodd;fill:#010101;}
	.st32{fill-rule:evenodd;clip-rule:evenodd;fill:#23191A;}
	.st33{clip-path:url(#SVGID_6_);fill-rule:evenodd;clip-rule:evenodd;fill:#FFFAFC;}
	.st34{fill-rule:evenodd;clip-rule:evenodd;fill:#844121;}
	.st35{fill-rule:evenodd;clip-rule:evenodd;fill:#FFFAFC;}
</style>
<g id="Natural_Features">
	<g>
		<text id="Columbia_Slough_Watershed_-_Label" transform="matrix(1 0 0 1 81 589.5)" class="st0 st1"> Columbia Slough Watershed</text>
		<rect id="Columbia_Slough_Watershed_-_Shape" x="27" y="580.5" class="st2" width="27" height="13.5"/>
		<rect x="81" y="553.5" class="st3" width="45" height="18"/>
		<text id="Water_-_Label" transform="matrix(1 0 0 1 81 562.0195)" class="st0 st1"> Water</text>
		<rect id="Water_-_Shape" x="27" y="553.5" class="st4" width="27" height="13.5"/>
		<rect x="18" y="535.5" class="st5" width="108" height="18"/>
		<text id="Natural_Features_-_Header" transform="matrix(1 0 0 1 18 544.7295)" class="st0 st6">Natural Features</text>
	</g>
</g>
<g id="Outdoor_Recreation__x26__Conservation_Areas">
	<text id="Park_-_Label" transform="matrix(1 0 0 1 81 522)" class="st0 st1"> Park</text>
	<rect id="Park_-_Shape" x="27" y="508.5" class="st7" width="27" height="13.5"/>
	<rect x="81" y="495" class="st3" width="81" height="9"/>
	<text id="Natural_Area_-_Label" transform="matrix(1 0 0 1 81 503.5195)" class="st0 st1"> Natural Area</text>
	<rect id="Natural_Area_-_Shape" x="27" y="490.5" class="st8" width="27" height="13.5"/>
	<text id="Golf_Course_-_Label" transform="matrix(1 0 0 1 81 477)" class="st0 st1"> Golf Course</text>
	<rect id="Golf_Course_-_Shape" x="27" y="470.1" class="st9" width="27" height="13.5"/>
	<text id="Cemetary_-_Label" transform="matrix(1 0 0 1 81 459)" class="st0 st1"> Cemetary</text>
	<rect id="Cemetary_-_Shape" x="27" y="450.9" class="st10" width="27" height="13.5"/>
	<rect x="18" y="423" class="st5" width="144" height="27"/>
	<text id="ORCA_-_Header" transform="matrix(1 0 0 1 18 432.9395)"><tspan x="0" y="0" class="st0 st11">Outdoor Recreation &amp; </tspan><tspan x="0" y="11" class="st0 st11">Conservation Areas </tspan></text>
</g>
<g id="Urban">
	<g>
		<rect x="81" y="398.9" class="st5" width="90" height="9"/>
		<text id="City_Boundary_-_Label" transform="matrix(1 0 0 1 81 407.4544)" class="st0 st1"> City Boundary</text>
		<rect id="City_Boundary_-_Shape_1_" x="27" y="397.6" class="st12" width="27" height="12.9"/>
		<text id="Major_Arterials_-_Label" transform="matrix(1 0 0 1 81 380.9349)" class="st0 st1"> Major Arterials</text>
		<path id="Major_Arterials_-_Shape" class="st13" d="M21.4,380.9c2.4-9.2,8.5-9.2,14.6,0s12.2,9.2,14.6,0"/>
		<rect x="18" y="353.9" class="st5" width="45" height="18"/>
		<text id="Urban_-_Header" transform="matrix(1 0 0 1 18 363.8743)" class="st0 st11">Urban</text>
	</g>
</g>
<g id="Bike_Routes">
	<g>
		<text id="Regional_Multiuse_Path_-_Label" transform="matrix(1 0 0 1 90 243)" class="st0 st1">Regional Multiuse Path</text>
		<line id="Local_Multiuse_Path_Shape" class="st14" x1="18.6" y1="342" x2="71.1" y2="342"/>
		<rect x="90" y="315" class="st5" width="99" height="9"/>
		<text id="Shared_Roadway_-_Label" transform="matrix(1 0 0 1 90 323.5195)" class="st0 st1">Shared Roadway</text>
		<line id="Shared_Roadway_-_Shape" class="st15" x1="18" y1="324.2" x2="72" y2="324.2"/>
		<rect x="90" y="297" class="st5" width="90" height="9"/>
		<text id="Over_x2F_Underpass_-_Label" transform="matrix(1 0 0 1 90 305.5195)" class="st0 st1">Over/Underpass</text>
		<line id="Over_x2F_Underpass_-_Shape" class="st16" x1="18" y1="304.4" x2="71.9" y2="304.4"/>
		<text id="Neighborhood_Greenway_-_Label" transform="matrix(1 0 0 1 90.196 283.3386)" class="st0 st1">Neighborhood Greenway</text>
		<line id="Neighborhood_Greenway_-_Shape" class="st17" x1="18.8" y1="284" x2="72" y2="284"/>
		<text id="Bike_Lane_-_Label" transform="matrix(1 0 0 1 90.2913 263.4961)" class="st0 st1">Bike Lane</text>
		<line id="Bike_Lane_-_Shape" class="st18" x1="18.5" y1="263.9" x2="72" y2="263.9"/>
		<rect x="90" y="333" class="st5" width="108" height="9"/>
		<text id="Local_Multiuse_Path_-_Label" transform="matrix(1 0 0 1 90 341.5195)" class="st0 st1">Local Multiuse Path</text>
		<line id="Regional_Multiuse_Path_-_Shape" class="st19" x1="18.6" y1="243" x2="72" y2="243"/>
		<rect x="21" y="216" class="st5" width="87" height="16.5"/>
		<text id="Bike_Routes_-_Header" transform="matrix(1 0 0 1 21.044 225.9397)" class="st0 st11">Bike Routes</text>
	</g>
</g>
<g id="Trails">
	<g>
		<g id="Columbia_Slough_Water_Trail_-_Shape">
			<line class="st20" x1="18" y1="179.9" x2="72" y2="179.9"/>
			<text transform="matrix(0.8231 0 0 1 18.6196 181.8696)" class="st21 st22 st23">!</text>
		</g>
		<rect x="81" y="172.9" class="st5" width="162" height="29.3"/>
		<text id="Columbia_Slough_Water_Trail__x0D_-_Label" transform="matrix(1 0 0 1 81.0002 181.3896)"><tspan x="0" y="0" class="st0 st1"> Columbia Slough Water </tspan><tspan x="0" y="11" class="st0 st1"> Trail </tspan></text>
		<path id="Hiking_Trails_-_Shape" class="st24" d="M66.6,204.9H72 M55.8,204.9h5.4 M39.6,204.9h10.8 M28.8,204.9h5.4 M18,204.9h5.4
			"/>
		<rect x="81" y="199.9" class="st5" width="100" height="17.4"/>
		<text id="Hiking_Trails_-_Label" transform="matrix(1 0 0 1 80.9999 209.8094)" class="st0 st11"> hiking trails</text>
		<rect x="18" y="153" class="st3" width="41.7" height="10.9"/>
		<text id="Trails_-_Header" transform="matrix(1 0 0 1 18.0002 162.94)" class="st0 st11">Trails </text>
	</g>
</g>
<g id="Points_of_Interest">
	<rect x="81" y="126" class="st5" width="108" height="9"/>
	<text id="TriMet_Bus_Stop_-_Label" transform="matrix(1 0 0 1 81 134.52)" class="st0 st1"> TriMet Bus Stop</text>
	<g id="Trimet_Logo_-_Shape">
		<ellipse class="st25" cx="31" cy="132.4" rx="11.6" ry="11.6"/>
		<g>
			<defs>
				<rect id="SVGID_2_" x="19.1" y="120.6" width="23.1" height="23.2"/>
			</defs>
			<clipPath id="SVGID_4_">
				<use xlink:href="#SVGID_2_"  style="overflow:visible;"/>
			</clipPath>
			<ellipse class="st26" cx="30.9" cy="132.2" rx="11.1" ry="11.1"/>
			<ellipse class="st27" cx="30.9" cy="132.2" rx="11.1" ry="11.1"/>
			<ellipse class="st28" cx="30.9" cy="132.2" rx="7.8" ry="7.8"/>
			<path class="st28" d="M30.9,134.8c1.4,0,2.6-1.2,2.6-2.6s-1.2-2.6-2.6-2.6c-1.4,0-2.6,1.2-2.6,2.6S29.4,134.8,30.9,134.8z"/>
			<path class="st28" d="M30.9,124.4c-2.9,0-5.2,2.3-5.2,5.2c0,2.9,2.3,5.2,5.2,5.2"/>
			<path class="st28" d="M37.6,136.1c0.5-0.8,0.7-1.7,0.7-2.6c0-1.9-1-3.6-2.6-4.5c-0.8-0.5-1.7-0.7-2.6-0.7c-1.9,0-3.6,1-4.5,2.6"
				/>
			<path class="st28" d="M24.1,136.1c0.9,1.6,2.6,2.6,4.5,2.6c0.9,0,1.8-0.2,2.6-0.7c1.6-0.9,2.6-2.6,2.6-4.5c0-0.9-0.2-1.8-0.7-2.6
				"/>
		</g>
	</g>
	<text id="Portage_Sites_-_Label" transform="matrix(1 0 0 1 81 108)" class="st0 st1"> Portage Sites</text>
	<g id="Portage_-_Shape">
		
			<rect x="22.8" y="95.6" transform="matrix(0.7071 -0.7071 0.7071 0.7071 -64.332 52.3865)" class="st29" width="16.5" height="16.5"/>
		
			<rect x="22.8" y="95.6" transform="matrix(0.7071 -0.7071 0.7071 0.7071 -64.3319 52.3865)" class="st30" width="16.5" height="16.5"/>
		<g>
			<defs>
				<rect id="SVGID_3_" x="25.3" y="98.9" width="11.5" height="11.1"/>
			</defs>
			<clipPath id="SVGID_5_">
				<use xlink:href="#SVGID_3_"  style="overflow:visible;"/>
			</clipPath>
			<path class="st31" d="M33.2,109.6l-0.9,0c0.1-0.1,0.2-0.1,0.3-0.3l0,0l0.3-0.2c0-0.1-0.1-0.3-0.2-0.4c-0.1-0.5-0.3-0.9-0.6-1.4
				c0.1-0.5,0.1-1.1,0.1-1.7c0.3-0.1,0.3-0.4,0.3-0.8l0.1-0.2c0-0.7-0.2-1.5-0.3-2.3c0.7,0.3,1.9,1,2.5,1.3c0.4,0.3,0.9,0.7,0.9,1.3
				c1-0.1,1.7-1.3,1-1.9c-2.4-2.1-7.5-3.9-10-4.3c-1.4,0.1-1.6,1.5-0.9,2.4c0.3-0.9,0.9-0.7,1.7-0.6c0.7,0.1,2.1,0.8,2.6,1
				c0,0.5-0.3,1.4,0.1,1.5c0.2,0.1,0.3-0.1,0.5-0.1l0.1,1.2c0,0.2,0,0.5,0.3,0.6c-0.3,0.6-0.7,1.2-0.9,1.9c0,0.2,0.1,0.4,0.1,0.5
				c0,0.5,0.1,1,0.1,1.5c-0.1,0.3-0.2,0.4-0.4,0.4c0,0-0.1,0-0.1,0c0,0-0.1,0.2-0.1,0.2l-0.4,0v0.4l3.9,0V109.6z M30.6,109.5
				L30.6,109.5l-0.2,0L30.6,109.5z M30.9,109.6c0-0.2,0-0.5,0-0.8c0-0.6,0.3-1.1,0-1.8c0.1-0.1,0.3-0.3,0.4-0.4l0.1,0.7
				c0.1,0.2,0.2,0.3,0.2,0.5c0.2,0.4,0.4,0.7,0.6,1.1c-0.1,0.5-0.4,0.5-0.4,0.7H30.9L30.9,109.6z M30.4,101.8l0.2,0.1l0,0.5
				c-0.1,0.1-0.1,0.1-0.2,0.1L30.4,101.8z M31,101.9L31,101.9l0,0.1L31,101.9z"/>
		</g>
	</g>
	<text id="Paddling_Launches_-_Label" transform="matrix(1 0 0 1 81 81)" class="st0 st1"> Paddling Launches</text>
	<g id="Paddling_Launch_Marker_-_Shape">
		<path class="st32" d="M37.3,80.9l-6.2,6.2l-6.2-6.2l0-12.4c0-3.4,2.8-4.7,6.2-4.7s6.2,1.3,6.2,4.7l0,0.1V80.9z"/>
		<g>
			<defs>
				<rect id="SVGID_1_" x="26" y="66.6" width="10.4" height="10.5"/>
			</defs>
			<clipPath id="SVGID_6_">
				<use xlink:href="#SVGID_1_"  style="overflow:visible;"/>
			</clipPath>
			<path class="st33" d="M30,68.5c0.5,0,0.9-0.4,0.9-0.9c0,0,0,0,0,0c0-0.5-0.4-0.9-0.9-0.9c-0.5,0-0.9,0.4-0.9,0.9
				S29.5,68.5,30,68.5z"/>
			<path class="st33" d="M34.9,74c0.1,0,0.2,0,0.4-0.1c0.1-0.1,0.3-0.2,0.5-0.3c0.1-0.1,0.3-0.1,0.4-0.1c0.1,0,0.2,0,0.3,0.1
				c0-0.6-0.2-1.1-0.6-1.6c-0.4-0.5-0.9-0.8-1.5-1c-0.1,0-0.3,0-0.3,0.1c0,0,0,0.1,0,0.2v0.5c0,0.2-0.1,0.3-0.3,0.3h-0.5l-0.4,1.2
				c0.1,0,0.2,0,0.3,0c0.5,0,1,0.2,1.5,0.5C34.7,74,34.8,74,34.9,74z"/>
			<path class="st33" d="M27.6,76.5c0.4,0,0.8-0.1,1.1-0.4c0.2-0.2,0.4-0.2,0.6-0.3l0.2-0.6c-0.4,0-0.9,0.1-1.2,0.4
				c-0.4,0.3-1,0.3-1.4,0c-0.1-0.1-0.2-0.2-0.4-0.2c-0.2-0.1-0.3,0-0.4,0.2c-0.1,0.2,0,0.3,0.2,0.4c0.1,0,0.2,0.1,0.3,0.2
				C26.8,76.3,27.2,76.5,27.6,76.5z"/>
			<path class="st33" d="M27.6,75.2c0.4,0,0.8-0.1,1.1-0.4c0.3-0.2,0.7-0.3,1.1-0.2l0.1-0.4l0,0l0,0l0.1-0.2
				c-0.6-0.2-1.2-0.1-1.7,0.3c-0.4,0.3-1,0.3-1.4,0c-0.1-0.1-0.2-0.2-0.4-0.2c-0.2-0.1-0.3,0-0.4,0.2c-0.1,0.2,0,0.3,0.2,0.4
				c0.1,0,0.2,0.1,0.3,0.2C26.8,75.1,27.2,75.2,27.6,75.2z"/>
			<path class="st33" d="M34.9,75.2c0.4,0,0.8-0.1,1.1-0.4c0.1-0.1,0.2-0.1,0.2-0.1c0.2-0.1,0.2-0.3,0.1-0.4
				c-0.1-0.2-0.3-0.2-0.4-0.1c-0.1,0.1-0.2,0.1-0.3,0.2c-0.4,0.3-1,0.3-1.4,0c-0.5-0.4-1-0.5-1.5-0.3c0.1,0.2,0.2,0.4,0.2,0.6
				c0.3-0.1,0.7,0,1,0.2C34.1,75.1,34.5,75.2,34.9,75.2z"/>
			<path class="st33" d="M34.9,76.5c0.4,0,0.8-0.1,1.1-0.4c0.1-0.1,0.2-0.1,0.2-0.1c0.2-0.1,0.2-0.3,0.1-0.4
				c-0.1-0.2-0.3-0.2-0.4-0.1c-0.1,0.1-0.2,0.1-0.3,0.2c-0.4,0.3-1,0.3-1.4,0c-0.4-0.3-0.9-0.5-1.4-0.4l0,0.1l-0.2,0.6l0,0l0,0.1
				c0.4-0.2,0.9-0.2,1.3,0.1C34.1,76.3,34.5,76.5,34.9,76.5z"/>
			<path class="st33" d="M27.6,74c0.1,0,0.2,0,0.4-0.1c0.4-0.3,0.9-0.5,1.5-0.5c0.3,0,0.7,0.1,1,0.2c0.1-0.1,0.3-0.2,0.5-0.3
				l0.4-1.2h-2.5c-0.2,0-0.3-0.1-0.3-0.3v-0.5c0-0.1,0-0.1,0-0.2C28.3,71,28.2,71,28.1,71c-0.6,0.2-1.1,0.5-1.5,1
				c-0.3,0.4-0.5,1-0.6,1.6c0.1,0,0.2-0.1,0.3-0.1c0.1,0,0.3,0,0.4,0.1c0.2,0.1,0.3,0.2,0.5,0.3C27.3,74,27.4,74,27.6,74z"/>
			<path class="st33" d="M31.3,77.1L31.3,77.1c0.1-0.1,0.2-0.1,0.2-0.2l0.4-1.2c0.1-0.2,0.2-0.4,0.2-0.6c0-0.1,0.1-0.2,0.1-0.4
				c0-0.3-0.2-0.5-0.4-0.6l1.1-3.2h0l0,0c0.3,0,0.6-0.3,0.6-0.6c0-0.2-0.1-0.4-0.2-0.5l0.4-1c0.1-0.2,0-0.3-0.2-0.4
				c-0.2-0.1-0.3,0-0.4,0.2l-0.4,1h-1.9L30,69.2c-0.4-0.3-0.9,0-0.9,0.5l0,1.8h1.8v-0.6h0.8h0.7h0l-1.1,2.9c-0.4,0-0.7,0.2-0.9,0.6
				l0,0v0l-0.6,1.8c0,0.1,0,0.2,0.1,0.3c0,0,0.1,0,0.1,0.1l1.1,0.4C31.1,77.1,31.2,77.1,31.3,77.1L31.3,77.1z"/>
		</g>
	</g>
	<rect x="81" y="36" class="st5" width="99" height="18"/>
	<text id="Trailheads_-_Label" transform="matrix(1 0 0 1 81 44.52)" class="st0 st1"> Trailheads</text>
	<g id="Trailheads_-_Shape">
		<path class="st34" d="M37.3,48.4l-6.2,6.2l-6.2-6.2l0-12.4c0-3.4,2.8-4.8,6.2-4.8c3.4,0,6.2,1.3,6.2,4.8L37.3,48.4z"/>
		<path class="st35" d="M31.9,36.1c-0.6,0-1-0.5-1-1c0-0.6,0.5-1,1-1s1,0.5,1,1C32.9,35.7,32.4,36.1,31.9,36.1z M28.4,39.4l-0.9-0.3
			c-0.2-0.1-0.3-0.3-0.2-0.4l0.9-2.7c0.1-0.2,0.3-0.3,0.4-0.2l0.9,0.3c0.1,0,0.2,0.1,0.2,0.2c0,0.1,0,0.2,0,0.3l-0.9,2.7
			c0,0.1-0.1,0.2-0.2,0.2C28.6,39.4,28.5,39.4,28.4,39.4L28.4,39.4z M31.8,36.8l0.8,1.1h1c0.2,0,0.4,0.2,0.4,0.4
			c0,0.2-0.1,0.4-0.4,0.4l0,4.7h-0.6v-4.8h-0.9l-0.6-1L31,39.5l1.1,1.3c0,0,0.2,0.1,0.2,0.4v2.4c0,0.3-0.2,0.5-0.5,0.5
			c-0.3,0-0.5-0.2-0.5-0.5v-2.3l-0.9-0.9L29.6,42l-1.4,1.7c-0.2,0.1-0.3,0.3-0.6,0.2c-0.2-0.1-0.3-0.2-0.3-0.4
			c0-0.1,0.1-0.2,0.2-0.3l1.5-2l1.3-3.9c0,0,0.3-0.8,0.8-0.8C31.5,36.4,31.8,36.8,31.8,36.8L31.8,36.8z"/>
	</g>
	<rect x="18" y="10.7" class="st3" width="113" height="16.3"/>
	<text id="Points_of_Interest_-_Header" transform="matrix(1 0 0 1 17.9999 20.592)" class="st0 st11">Points of Interest</text>
</g>
<g id="Guides">
</g>
</svg>
