<?xml version="1.0" encoding="utf-8"?>
<!-- Generator: Adobe Illustrator 24.1.2, SVG Export Plug-In . SVG Version: 6.00 Build 0)  -->
<svg version="1.1" id="Layer_1" xmlns="http://www.w3.org/2000/svg" xmlns:xlink="http://www.w3.org/1999/xlink" x="0px" y="0px"
	 viewBox="0 0 73 133.5" style="enable-background:new 0 0 73 133.5;" xml:space="preserve">
<style type="text/css">
	.st0{fill-rule:evenodd;clip-rule:evenodd;fill:#23191A;}
	.st1{clip-path:url(#SVGID_1_);fill-rule:evenodd;clip-rule:evenodd;fill:#FFFAFC;}
	.st2{clip-path:url(#SVGID_2_);fill-rule:evenodd;clip-rule:evenodd;fill:#FFFAFC;}
	.st3{clip-path:url(#SVGID_3_);fill-rule:evenodd;clip-rule:evenodd;fill:#FFFAFC;}
	.st4{clip-path:url(#SVGID_4_);fill-rule:evenodd;clip-rule:evenodd;fill:#FFFAFC;}
	.st5{clip-path:url(#SVGID_5_);fill-rule:evenodd;clip-rule:evenodd;fill:#FFFAFC;}
	.st6{clip-path:url(#SVGID_6_);fill-rule:evenodd;clip-rule:evenodd;fill:#FFFAFC;}
	.st7{clip-path:url(#SVGID_7_);fill-rule:evenodd;clip-rule:evenodd;fill:#FFFAFC;}
	.st8{clip-path:url(#SVGID_8_);fill-rule:evenodd;clip-rule:evenodd;fill:#FFFAFC;}
</style>
<g id="Paddling_Launch_Marker_-_Shape">
	<path class="st0" d="M71.9,98.8l-35.4,35.2L1.1,98.8l0.1-70.6C1.3,8.8,17,1.3,36.5,1.3s35.2,7.4,35.2,26.9l0.1,0.4V98.8z"/>
	<g>
		<g>
			<defs>
				<rect id="SVGID_17_" x="8" y="17.9" width="59" height="59.9"/>
			</defs>
			<clipPath id="SVGID_1_">
				<use xlink:href="#SVGID_17_"  style="overflow:visible;"/>
			</clipPath>
			<path class="st1" d="M30.4,28.3c2.9,0,5.2-2.3,5.2-5.2l0,0c0-2.9-2.3-5.2-5.2-5.2s-5.2,2.3-5.2,5.2S27.6,28.3,30.4,28.3z"/>
		</g>
		<g>
			<defs>
				<rect id="SVGID_19_" x="8" y="17.9" width="59" height="59.9"/>
			</defs>
			<clipPath id="SVGID_2_">
				<use xlink:href="#SVGID_19_"  style="overflow:visible;"/>
			</clipPath>
			<path class="st2" d="M58.3,59.8c0.7,0,1.3-0.3,2-0.7c0.9-0.6,1.7-1.2,2.6-1.6c0.7-0.3,1.5-0.6,2.2-0.6c0.6,0,1.2,0.1,1.7,0.3
				c-0.1-3.2-1.3-6.4-3.3-9c-2-2.8-5.1-4.7-8.3-5.5c-0.7-0.1-1.5,0.1-1.9,0.7c-0.3,0.4-0.3,0.7-0.3,1v2.9c0,1-0.7,1.7-1.7,1.7h-2.6
				l-2.5,7c0.6,0,1.2-0.1,1.7-0.1c3.1,0,6,1,8.4,2.9C56.9,59.5,57.6,59.8,58.3,59.8z"/>
		</g>
		<g>
			<defs>
				<rect id="SVGID_21_" x="8" y="17.9" width="59" height="59.9"/>
			</defs>
			<clipPath id="SVGID_3_">
				<use xlink:href="#SVGID_21_"  style="overflow:visible;"/>
			</clipPath>
			<path class="st3" d="M16.7,73.8c2.2,0,4.4-0.7,6.3-2.2c1.2-0.9,2.3-1.3,3.6-1.5l1.2-3.5c-2.5-0.1-5,0.6-7,2.2c-2.5,2-5.7,2-8.2,0
				c-0.7-0.6-1.5-1-2.2-1.3c-0.9-0.4-1.9,0-2.3,0.9c-0.4,0.9,0,1.9,0.9,2.3c0.4,0.3,1,0.6,1.5,0.9C12.3,73.1,14.5,73.8,16.7,73.8z"
				/>
		</g>
		<g>
			<defs>
				<rect id="SVGID_23_" x="8" y="17.9" width="59" height="59.9"/>
			</defs>
			<clipPath id="SVGID_4_">
				<use xlink:href="#SVGID_23_"  style="overflow:visible;"/>
			</clipPath>
			<path class="st4" d="M16.7,66.8c2.2,0,4.4-0.7,6.3-2.2c1.7-1.5,4.1-1.7,6.1-1.2l0.7-2.2v-0.1l0,0l0.4-0.9c-3.2-1-6.7-0.4-9.5,1.7
				c-2.5,2-5.7,2-8.2,0c-0.7-0.6-1.5-1-2.2-1.3c-0.9-0.4-1.9,0-2.3,0.9s0,1.9,0.9,2.3c0.4,0.3,1,0.6,1.5,0.9
				C12.3,66.1,14.5,66.8,16.7,66.8z"/>
		</g>
		<g>
			<defs>
				<rect id="SVGID_25_" x="8" y="17.9" width="59" height="59.9"/>
			</defs>
			<clipPath id="SVGID_5_">
				<use xlink:href="#SVGID_25_"  style="overflow:visible;"/>
			</clipPath>
			<path class="st5" d="M58.3,66.8c2.2,0,4.4-0.7,6.3-2.2c0.4-0.3,0.9-0.6,1.3-0.9c0.9-0.4,1.2-1.5,0.9-2.3
				c-0.4-0.9-1.5-1.3-2.3-0.9c-0.7,0.3-1.3,0.7-1.9,1.2c-2.5,2-5.7,2-8.2,0c-2.6-2-5.8-2.6-8.7-1.9c0.6,1,0.9,2.2,1,3.3
				c1.9-0.4,3.9,0,5.7,1.3C54,66.1,56,66.8,58.3,66.8z"/>
		</g>
		<g>
			<defs>
				<rect id="SVGID_27_" x="8" y="17.9" width="59" height="59.9"/>
			</defs>
			<clipPath id="SVGID_6_">
				<use xlink:href="#SVGID_27_"  style="overflow:visible;"/>
			</clipPath>
			<path class="st6" d="M58.3,73.8c2.2,0,4.4-0.7,6.3-2.2c0.4-0.3,0.9-0.6,1.3-0.9c0.9-0.4,1.2-1.5,0.9-2.3
				c-0.4-0.9-1.5-1.3-2.3-0.9c-0.7,0.3-1.3,0.7-1.9,1.2c-2.5,2-5.7,2-8.2,0c-2.3-1.9-5.4-2.6-8.2-2l-0.1,0.4l-1.3,3.5v0.1L44.7,71
				c2.3-1.3,5.2-1.2,7.4,0.6C54,73.1,56,73.8,58.3,73.8z"/>
		</g>
		<g>
			<defs>
				<rect id="SVGID_29_" x="8" y="17.9" width="59" height="59.9"/>
			</defs>
			<clipPath id="SVGID_7_">
				<use xlink:href="#SVGID_29_"  style="overflow:visible;"/>
			</clipPath>
			<path class="st7" d="M16.7,59.8c0.7,0,1.3-0.3,2-0.7c2.5-1.9,5.4-2.9,8.4-2.9c1.9,0,3.8,0.4,5.4,1.2c0.9-0.7,1.7-1.2,2.8-1.5
				l2.3-6.7H23.4c-1,0-1.7-0.7-1.7-1.7v-2.9c0-0.3-0.1-0.7-0.3-0.9c-0.4-0.7-1.2-1-1.9-0.7c-3.2,0.9-6.3,2.8-8.3,5.5
				c-1.9,2.5-3.1,5.7-3.3,8.9C8.4,57.2,9,57,9.6,57c0.7,0,1.5,0.1,2.2,0.4c1,0.4,2,1,2.9,1.7C15.4,59.5,16,59.8,16.7,59.8z"/>
		</g>
		<g>
			<defs>
				<rect id="SVGID_31_" x="8" y="17.9" width="59" height="59.9"/>
			</defs>
			<clipPath id="SVGID_8_">
				<use xlink:href="#SVGID_31_"  style="overflow:visible;"/>
			</clipPath>
			<path class="st8" d="M37.7,77.6l0.3-0.1c0.4-0.1,0.7-0.6,0.9-1l2.5-6.8c0.4-1.2,1-2.5,1.5-3.6c0.3-0.7,0.3-1.5,0.3-2.2
				c-0.1-1.5-1-2.6-2-3.6l6.6-17.9l0,0h0.1c1.9,0,3.5-1.6,3.5-3.5c0-1.2-0.6-2-1.3-2.6l2-5.4c0.3-0.9-0.1-1.9-1-2.3
				c-0.9-0.3-1.9,0.1-2.3,1l-2.2,5.8H35.6l-5-2.9c-2.3-1.6-5.4,0.1-5.4,2.9v10.2h10.3v-3.2h4.2h3.9l0,0l-6.1,16.7
				c-2.2,0-4.1,1.3-5,3.5l0,0l0,0l-3.6,10.3c-0.3,0.7,0,1.5,0.4,1.9c0.1,0.1,0.3,0.3,0.6,0.3l6.4,2.3c0.1,0,0.4,0.1,0.6,0.1
				L37.7,77.6z"/>
		</g>
	</g>
</g>
</svg>
