<?xml version="1.0" encoding="utf-8"?>
<!-- Generator: Adobe Illustrator 24.1.2, SVG Export Plug-In . SVG Version: 6.00 Build 0)  -->
<svg version="1.1" id="Layer_1" xmlns="http://www.w3.org/2000/svg" xmlns:xlink="http://www.w3.org/1999/xlink" x="0px" y="0px"
	 viewBox="0 0 73 133.5" style="enable-background:new 0 0 73 133.5;" xml:space="preserve">
<style type="text/css">
	.st0{fill-rule:evenodd;clip-rule:evenodd;fill:#844121;}
	.st1{fill-rule:evenodd;clip-rule:evenodd;fill:#FFFAFC;}
</style>
<g id="Trailheads_-_Shape">
	<path class="st0" d="M71,98.8l-34.8,34.8L1.5,98.8l0.2-69.1c0-19.2,15.5-26.5,34.5-26.5c19.1,0,34.5,7.3,34.5,26.5L71,98.8z"/>
	<path class="st1" d="M40.7,30.5c-3.2,0-5.8-2.6-5.8-5.8c0-3.2,2.6-5.8,5.8-5.8s5.8,2.6,5.8,5.8C46.4,27.9,43.9,30.5,40.7,30.5z
		 M21.2,48.7l-4.7-1.6c-1-0.3-1.6-1.4-1.2-2.4L20,29.9c0.3-1,1.4-1.6,2.4-1.3l4.9,1.6c0.5,0.1,0.9,0.5,1.2,1c0.2,0.4,0.3,1,0.1,1.5
		l-4.7,14.8c-0.2,0.5-0.5,0.9-1,1.2c-0.5,0.2-1,0.3-1.5,0.1L21.2,48.7z M40.2,34.1l4.4,6.2h5.8c1.3,0,2.3,1.1,2.3,2.2
		c0.1,1.1-0.8,2.2-2,2.3l0.1,26.5h-3.5V44.7h-4.9l-3.1-5.3l-3.5,10.2l6,7.1c0,0,1,0.5,1.1,2V72c0,1.5-1.2,2.7-2.7,2.7
		c-1.5,0-2.7-1.2-2.7-2.7V59.3l-4.9-4.9l-4.4,8.9l-7.7,9.4c-0.9,0.8-1.6,1.7-3.2,1.1c-1-0.4-1.8-1.3-1.8-2.5c0-0.7,0.4-1.3,0.8-1.9
		l8.3-10.9l7.1-21.8c0,0,1.6-4.7,4.2-4.7C38.7,31.9,40.2,34.1,40.2,34.1L40.2,34.1z"/>
</g>
</svg>
